<?xml version="1.0" standalone="no"?>
<!DOCTYPE svg PUBLIC "-//W3C//DTD SVG 20010904//EN"
 "http://www.w3.org/TR/2001/REC-SVG-20010904/DTD/svg10.dtd">
<svg version="1.0" xmlns="http://www.w3.org/2000/svg"
 width="700.000000pt" height="700.000000pt" viewBox="0 0 700.000000 700.000000"
 preserveAspectRatio="xMidYMid meet">
<metadata>
Created by potrace 1.14, written by Peter Selinger 2001-2017
</metadata>
<g transform="translate(0.000000,700.000000) scale(0.100000,-0.100000)"
fill="#000000" stroke="none">
<path d="M1550 6989 c-242 -38 -387 -81 -565 -168 -358 -176 -630 -448 -805
-806 -90 -184 -144 -370 -169 -575 -5 -43 -8 -900 -7 -1980 2 -2107 -3 -1943
66 -2191 185 -672 784 -1178 1485 -1257 83 -10 3838 -9 3903 1 109 15 129 19
187 33 33 8 70 17 82 19 57 13 208 72 298 117 455 226 794 642 918 1128 54
212 52 108 52 2180 0 1059 -4 1950 -8 1980 -5 30 -10 66 -11 80 -6 50 -48 207
-78 290 -58 160 -192 400 -280 501 -13 15 -43 51 -68 79 -68 81 -222 213 -329
284 -188 125 -422 223 -622 261 -47 8 -100 19 -119 22 -51 10 -3865 12 -3930
2z m2450 -1563 c176 -35 346 -101 458 -178 156 -107 275 -280 323 -468 92
-359 -15 -684 -300 -913 -62 -50 -259 -137 -309 -137 -4 0 -8 -9 -8 -20 0 -11
4 -21 8 -21 4 -1 11 -2 16 -3 4 -1 30 -5 57 -10 327 -50 604 -275 703 -571 40
-119 47 -176 46 -340 -4 -270 -85 -480 -255 -659 -132 -140 -306 -238 -523
-297 -195 -52 -181 -52 -1121 -56 l-880 -4 0 1851 0 1851 850 -4 c747 -3 860
-6 935 -21z"/>
<path d="M2813 4962 l-23 -3 0 -539 0 -538 428 3 c462 3 533 9 677 61 228 81
349 247 346 476 -3 203 -94 362 -260 452 -74 40 -209 75 -316 82 -94 6 -814
11 -852 6z"/>
<path d="M2790 2837 c0 -558 1 -595 18 -599 9 -2 222 -3 472 -2 372 1 475 5
563 18 192 30 309 81 407 176 104 100 155 224 159 390 7 272 -130 465 -389
547 -169 54 -246 61 -767 62 l-463 2 0 -594z"/>
</g>
</svg>
